REM Ripping Tool: trurip

FILE "Tengai Makyou - Ziria (1989)(Hudson)(JP)[AKA Far East of Eden - Ziria].img" BINARY
  TRACK 01 AUDIO
    INDEX 01 00:00:00
  TRACK 02 MODE1/2352
    INDEX 00 00:44:65
    INDEX 01 00:47:70
  TRACK 03 AUDIO
    INDEX 00 14:47:43
    INDEX 01 14:49:43
  TRACK 04 AUDIO
    INDEX 01 16:21:58
  TRACK 05 AUDIO
    INDEX 01 17:42:20
  TRACK 06 MODE1/2352
    INDEX 00 20:57:10
    INDEX 01 21:00:10

REM DISC HASHES
REM CRC32 : 7c667687
REM MD5   : 519385ff0d76ec167e6740eaf688ad1f
REM SHA1  : 86c4fc7e8fe48729f50f7a2281581707f01ff0a7

REM Gap Append Method: Prev [crc32]
REM Trk 01: c55d8516
REM Trk 02: d1190538
REM Trk 03: 3f6b8eaf
REM Trk 04: 796235d8
REM Trk 05: a1a748c1
REM Trk 06: 63fc1532

REM Gap Append Method: Prev [md5]
REM Trk 01: 6ab78410819721db5625fc827b0e89d8
REM Trk 02: a341571cbed413d7ffce6765aa331abd
REM Trk 03: 04249c48fd9fbeda3eeb9821969a99c0
REM Trk 04: 7887df291c0126bbe5c058a637d54d4a
REM Trk 05: 32e78e49e31cca52eb4f8923123ceb66
REM Trk 06: e479f48d7f3d6c3aa52005844e310476

REM Gap Append Method: Prev [sha1]
REM Trk 01: 8004b480856fe26c135c471517d8b00421db46a6
REM Trk 02: 7a12c0d9cca897d3bdf935267068866dac4cdc79
REM Trk 03: 5f7b0ecb4ad229429efd547635609fe5d332694e
REM Trk 04: f251b472418209f8c8af7153198c410add35b6ba
REM Trk 05: ffecc449b9bd892ef15f4fe1db7de0f0c447e27b
REM Trk 06: 08b0d8fea71ae742ea9d1cdc3c2847920849c1c0

REM Gap Append Method: None [crc32]
REM Trk 01: b979500c
REM Trk 02: 334114c6
REM Trk 03: 3f6b8eaf
REM Trk 04: 796235d8
REM Trk 05: 673d33c9
REM Trk 06: 63fc1532
REM Gap 02: 1c88fabb
REM Gap 03: 7abe247f
REM Gap 06: d19a149f

REM Gap Append Method: None [md5]
REM Trk 01: a25a2c129b7100092cc40e9b6e176a63
REM Trk 02: eb4ed6d331f5ac72b592365f95527ed8
REM Trk 03: 04249c48fd9fbeda3eeb9821969a99c0
REM Trk 04: 7887df291c0126bbe5c058a637d54d4a
REM Trk 05: c808b91a6f28bb1e6f0e46019d2d3903
REM Trk 06: e479f48d7f3d6c3aa52005844e310476
REM Gap 02: 75461da31ca946a1c932d612964884b3
REM Gap 03: 9df204fbc98bb8965081cb30a89715fc
REM Gap 06: 90d1082b3ae8475c11fdf90484a99132

REM Gap Append Method: None [sha1]
REM Trk 01: 9ac3f1a11d434d186466917f1c7955bf7670c910
REM Trk 02: fc3352e2495db83751b3ce883c13d7c0d1695388
REM Trk 03: 5f7b0ecb4ad229429efd547635609fe5d332694e
REM Trk 04: f251b472418209f8c8af7153198c410add35b6ba
REM Trk 05: 7aa3a6ebab7249f3301373926bf84d89d757de28
REM Trk 06: 08b0d8fea71ae742ea9d1cdc3c2847920849c1c0
REM Gap 02: 89ae0754aed0127dc2b66dbaaa0a07e7b6c3d127
REM Gap 03: cbe29e0bd725ef1194f8c47619dd42078e841de2
REM Gap 06: 796cafa58a6ce6fa39bccd00e630a04aa36f6af2

REM Gap Append Method: Next [crc32]
REM Trk 01: b979500c
REM Trk 02: e6c83431
REM Trk 03: a623ca97
REM Trk 04: 796235d8
REM Trk 05: 673d33c9
REM Trk 06: d77dac29

REM Gap Append Method: Next [md5]
REM Trk 01: a25a2c129b7100092cc40e9b6e176a63
REM Trk 02: 46f1e8ec66119425da0296fe0825a807
REM Trk 03: 1ced533034651bd5d8e40c0832249828
REM Trk 04: 7887df291c0126bbe5c058a637d54d4a
REM Trk 05: c808b91a6f28bb1e6f0e46019d2d3903
REM Trk 06: 8ead610d76a7d1dc27ff6ed1e92b28b9

REM Gap Append Method: Next [sha1]
REM Trk 01: 9ac3f1a11d434d186466917f1c7955bf7670c910
REM Trk 02: 4f0e196e7ec2a95f511886f82617401802c61e1d
REM Trk 03: dfacc6ba352a78463b40d70148542ca58c712527
REM Trk 04: f251b472418209f8c8af7153198c410add35b6ba
REM Trk 05: 7aa3a6ebab7249f3301373926bf84d89d757de28
REM Trk 06: aebf52d9ed0ab28059439f5796ac88b9b453c668

